# xmcd CD database file
#
# Track frame offsets:
#	150
#	41114
#	75147
#	110490
#	147295
#	185087
#	210107
#
# Disc length: 3391 seconds
#
# Revision: 0
# Processed by: cddbd v1.5.1PL2 Copyright (c) Steve Scherf et al.
# Submitted via: CDex 1.51
#
DISCID=550d3d07
DTITLE=Sopot-Hamburg Jazz Quintet - Sopot-Hamburg Jazz Quintet
DYEAR=2000
DGENRE=Jazz
TTITLE0=Antoni's Blues
TTITLE1=Platino
TTITLE2=One for John
TTITLE3=Lonely Boy
TTITLE4=November '99
TTITLE5=Vincent's Blues
TTITLE6=Pu-Puu
EXTD=YEAR: 2000
EXTT0=
EXTT1=
EXTT2=
EXTT3=
EXTT4=
EXTT5=
EXTT6=
PLAYORDER=
